<svg width="16" height="16" viewBox="0 0 16 16" fill="none" xmlns="http://www.w3.org/2000/svg">
<path fill-rule="evenodd" clip-rule="evenodd" d="M13.5 0.5C14.6046 0.5 15.5 1.39543 15.5 2.5V9.7666C15.5 10.8712 14.6046 11.7666 13.5 11.7666H4.2998C4.14254 11.7667 3.99478 11.841 3.90039 11.9668L1.40039 15.2998C1.27126 15.472 1.04597 15.5427 0.841797 15.4746C0.637626 15.4066 0.5 15.2152 0.5 15V2.5C0.5 1.39543 1.39543 0.5 2.5 0.5H13.5ZM3.5 8C3.22386 8 3 8.22386 3 8.5C3 8.77614 3.22386 9 3.5 9H8.5C8.77614 9 9 8.77614 9 8.5C9 8.22386 8.77614 8 8.5 8H3.5ZM3.5 5.5C3.22386 5.5 3 5.72386 3 6C3 6.27614 3.22386 6.5 3.5 6.5H12.5C12.7761 6.5 13 6.27614 13 6C13 5.72386 12.7761 5.5 12.5 5.5H3.5ZM3.5 3C3.22386 3 3 3.22386 3 3.5C3 3.77614 3.22386 4 3.5 4H12.5C12.7761 4 13 3.77614 13 3.5C13 3.22386 12.7761 3 12.5 3H3.5Z" fill="#616161"/>
</svg>
